# xmcd
#
# Track frame offsets:
#  150
#  15794
#  30598
#  46929
#  73865
#  101176
#  126888
#  152329
#
# Disc length: 2417 seconds
#
# Revision: 0
# Processed by: cddbd v1.5.1PL2 Copyright (c) Steve Scherf et al.
# Submitted via: Collectorz.com_Music_Collector 6.9
#
DISCID=5a096f08
DTITLE=Syntone - Heal My World
DYEAR=1999
DGENRE=Trance
TTITLE0=Heal My World (Radio Edit)
TTITLE1=Heal My World (Blank and Jones Radio Mix)
TTITLE2=Heal My World (Clubtrance Radio Remix)
TTITLE3=Heal My World (Extended Vocal Mix)
TTITLE4=Heal My World (Blank and Jones Club Mix)
TTITLE5=Heal My World (Club Mix)
TTITLE6=Heal My World (Clubtrance Remix)
TTITLE7=Heal My World (Speedy Groove Dub)
EXTD=
EXTT0=
EXTT1=
EXTT2=
EXTT3=
EXTT4=
EXTT5=
EXTT6=
EXTT7=
PLAYORDER=
